<svg width="920" height="540" viewBox="0 0 920 540" fill="none" xmlns="http://www.w3.org/2000/svg">
  <defs>
    <linearGradient id="bg" x1="40" y1="30" x2="860" y2="500" gradientUnits="userSpaceOnUse">
      <stop stop-color="#1E3A8A" stop-opacity="0.95"/>
      <stop offset="1" stop-color="#0F172A" stop-opacity="0.95"/>
    </linearGradient>
    <linearGradient id="line" x1="145" y1="120" x2="785" y2="120" gradientUnits="userSpaceOnUse">
      <stop stop-color="#22D3EE"/>
      <stop offset="1" stop-color="#3B82F6"/>
    </linearGradient>
  </defs>
  <rect x="35" y="30" width="850" height="480" rx="26" fill="url(#bg)"/>
  <rect x="80" y="80" width="760" height="380" rx="20" fill="#0B1632"/>
  <path d="M145 120H785" stroke="url(#line)" stroke-width="10" stroke-linecap="round"/>
  <circle cx="145" cy="120" r="13" fill="#22D3EE"/>
  <circle cx="360" cy="120" r="13" fill="#3B82F6"/>
  <circle cx="575" cy="120" r="13" fill="#22C55E"/>
  <circle cx="785" cy="120" r="13" fill="#F59E0B"/>
  <rect x="120" y="170" width="180" height="120" rx="14" fill="#111F3F"/>
  <rect x="335" y="170" width="180" height="120" rx="14" fill="#111F3F"/>
  <rect x="550" y="170" width="180" height="120" rx="14" fill="#111F3F"/>
  <rect x="120" y="320" width="610" height="100" rx="14" fill="#111F3F"/>
  <rect x="140" y="196" width="90" height="10" rx="5" fill="#22D3EE"/>
  <rect x="140" y="214" width="140" height="8" rx="4" fill="#334155"/>
  <rect x="140" y="230" width="120" height="8" rx="4" fill="#334155"/>
  <rect x="355" y="196" width="100" height="10" rx="5" fill="#3B82F6"/>
  <rect x="355" y="214" width="130" height="8" rx="4" fill="#334155"/>
  <rect x="355" y="230" width="110" height="8" rx="4" fill="#334155"/>
  <rect x="570" y="196" width="80" height="10" rx="5" fill="#22C55E"/>
  <rect x="570" y="214" width="130" height="8" rx="4" fill="#334155"/>
  <rect x="570" y="230" width="140" height="8" rx="4" fill="#334155"/>
  <rect x="140" y="348" width="140" height="10" rx="5" fill="#F59E0B"/>
  <rect x="140" y="367" width="560" height="8" rx="4" fill="#334155"/>
  <rect x="140" y="384" width="440" height="8" rx="4" fill="#334155"/>
</svg>
